<!--?xml version="1.0" standalone="no"?-->

<svg version="1.0" xmlns="http://www.w3.org/2000/svg" width="231.000000pt" height="300.000000pt" viewBox="0 0 231.000000 300.000000" preserveAspectRatio="xMidYMid meet">
<g transform="translate(0.000000,300.000000) scale(0.100000,-0.100000)" fill="#363233" stroke="none">
<path d="M1294 2463 c-50 -51 -99 -93 -109 -93 -16 0 -17 7 -12 75 3 43 2 75
-4 75 -5 0 -9 -3 -9 -8 0 -12 -92 -118 -129 -148 l-34 -28 -18 23 c-10 12 -21
38 -25 57 -6 34 -24 38 -24 5 0 -10 -14 -43 -31 -75 -27 -49 -39 -61 -92 -88
-34 -17 -79 -44 -100 -61 -34 -27 -37 -31 -23 -45 13 -13 22 -9 84 37 38 28
90 60 116 71 44 20 57 35 36 42 -6 2 -3 18 7 40 l17 38 11 -32 c5 -18 18 -34
28 -36 26 -5 93 44 135 98 l35 45 -7 -50 c-12 -102 27 -99 143 13 44 43 81 76
81 73 0 -3 -9 -30 -21 -60 -37 -98 -10 -140 49 -80 32 33 32 33 33 8 0 -22 1
-23 9 -4 5 11 9 34 9 50 l0 30 -30 -37 c-29 -36 -77 -54 -67 -25 34 90 49 151
42 166 -8 13 -25 0 -100 -76z" id="node1" class="node"></path>
<path d="M1484 2331 c-68 -41 -127 -145 -139 -244 l-5 -42 14 35 c46 120 140
230 194 230 29 0 59 -25 82 -69 17 -33 39 -164 40 -236 0 -47 3 -57 13 -47 16
17 16 213 -1 269 -7 24 -30 61 -51 83 -32 33 -44 40 -77 40 -21 0 -53 -9 -70
-19z" id="node2" class="node"></path>
<path d="M514 2166 c-38 -17 -77 -67 -94 -120 -21 -65 -8 -211 24 -281 14 -32
28 -56 30 -54 2 2 -2 38 -10 79 -27 153 -14 261 36 312 37 37 75 36 131 -2 46
-31 135 -140 145 -177 7 -27 24 -31 24 -5 0 56 -107 205 -170 237 -42 21 -83
25 -116 11z" id="node3" class="node"></path>
<path d="M1534 2117 c-84 -90 -131 -208 -203 -506 -51 -208 -67 -257 -99 -293
-37 -43 -121 0 -143 71 -6 20 -9 63 -8 94 3 48 2 54 -10 43 -17 -17 -26 -93
-17 -141 10 -49 68 -113 112 -121 40 -7 89 10 109 39 13 19 17 19 89 7 94 -16
157 -9 271 31 161 56 249 48 315 -27 54 -62 36 -96 -61 -113 -64 -11 -93 -26
-83 -43 4 -5 16 -7 28 -4 11 4 45 11 75 16 65 11 101 41 101 83 0 90 -134 179
-244 162 -22 -4 -80 -20 -128 -36 -48 -16 -107 -32 -132 -35 l-44 -6 5 60 c6
69 -15 152 -55 211 l-25 36 23 95 c28 115 79 253 126 339 19 35 33 65 31 67
-2 2 -17 -11 -33 -29z" id="node4" class="node"></path>
<path d="M1846 2054 c-29 -26 -64 -29 -109 -9 -14 6 -16 4 -11 -11 18 -50 54
-58 99 -22 l28 22 -7 -24 c-4 -14 -9 -48 -13 -75 -7 -66 10 -84 58 -60 24 13
31 14 27 4 -36 -98 -40 -121 -29 -183 6 -34 11 -95 11 -134 l0 -71 -35 15
c-43 18 -44 11 -5 -22 16 -14 37 -38 46 -53 17 -28 52 -56 61 -48 2 3 -2 18
-10 34 -10 18 -13 44 -10 73 3 27 -4 91 -17 156 -20 105 -21 114 -6 165 9 29
16 65 16 81 0 28 -13 37 -25 18 -3 -5 -20 -10 -36 -10 -29 0 -30 1 -23 38 4
20 10 42 14 47 12 15 23 95 13 95 -4 0 -21 -12 -37 -26z" id="node5" class="node"></path>
<path d="M1537 2023 c-15 -14 -4 -47 63 -184 84 -174 105 -247 97 -343 l-6
-70 21 21 c17 18 21 33 20 100 0 85 -29 184 -82 278 -16 28 -46 85 -68 128
-21 42 -42 74 -45 70z" id="node6" class="node"></path>
<path d="M537 1933 c-4 -3 9 -24 27 -47 18 -22 73 -115 121 -206 l89 -165 1
-90 c1 -78 5 -96 29 -140 15 -27 33 -56 38 -63 14 -17 7 -23 -48 -37 -38 -9
-62 -8 -142 7 -56 11 -112 16 -132 13 -75 -14 -142 -65 -155 -118 -6 -23 -2
-33 29 -62 36 -33 94 -54 115 -40 21 12 11 23 -26 30 -84 15 -105 55 -55 105
47 46 97 56 210 39 163 -23 200 -14 305 75 59 50 68 55 101 49 38 -6 53 12 19
23 -59 19 -99 43 -138 83 -58 59 -78 90 -166 247 -39 71 -91 158 -114 194 -42
63 -97 115 -108 103z" id="node7" class="node"></path>
<path d="M577 1820 c-10 -25 -46 -271 -53 -355 -8 -100 9 -189 42 -221 31 -32
46 -30 29 3 -40 78 -43 181 -9 415 14 95 15 132 7 149 -8 18 -12 20 -16 9z" id="node8" class="node"></path>
<path d="M376 1749 c-21 -57 -29 -98 -33 -181 -5 -101 7 -218 27 -243 13 -18
45 -110 42 -122 -7 -29 30 -4 53 36 6 11 3 13 -13 9 -19 -5 -24 1 -37 45 -40
135 -44 313 -11 435 8 30 11 63 7 74 -6 16 -13 6 -35 -53z" id="node9" class="node"></path>
<path d="M1081 1701 c-7 -11 -23 -24 -36 -27 -26 -6 -32 -18 -15 -29 16 -10
50 14 61 42 12 32 5 42 -10 14z" id="node10" class="node"></path>
<path d="M1760 1328 c-27 -11 -25 -13 35 -23 l40 -7 -47 -24 c-92 -47 -96 -83
-20 -166 54 -59 65 -83 52 -108 -25 -47 -60 -49 -268 -19 -117 17 -177 20
-306 17 -177 -5 -295 -28 -492 -93 -143 -48 -214 -46 -214 8 0 10 27 44 61 75
69 65 70 81 8 106 -48 19 -84 20 -124 1 -29 -14 -29 -14 20 -9 35 4 63 1 90
-10 l39 -17 -62 -57 c-34 -31 -64 -69 -68 -83 -7 -33 34 -85 75 -94 29 -6 151
18 206 41 70 29 285 76 394 85 128 12 303 5 426 -17 156 -27 208 -17 241 47
22 44 10 81 -47 143 -27 30 -49 60 -49 68 0 18 27 43 77 74 34 20 40 21 65 8
25 -13 28 -13 28 1 0 16 -59 50 -105 58 -16 3 -41 1 -55 -5z" id="node11" class="node"></path>
<path d="M1130 1099 c-110 -8 -205 -31 -269 -64 -54 -28 -52 -30 15 -10 160
47 442 70 549 45 22 -5 44 -5 48 -1 21 21 -207 41 -343 30z" id="node12" class="node"></path>
<path d="M1211 875 c-12 -31 -21 -62 -21 -71 0 -27 -33 1 -70 60 -34 53 -52
65 -58 35 -3 -21 68 -110 105 -132 32 -18 33 -18 39 0 7 18 50 126 61 151 3 7
-3 12 -15 12 -16 0 -25 -13 -41 -55z" id="node13" class="node"></path>
<path d="M1562 873 c-39 -145 -85 -295 -104 -335 -25 -56 -63 -77 -182 -102
-98 -20 -139 -20 -226 0 -80 18 -85 23 -144 154 -98 218 -110 240 -128 240
-23 0 -23 -3 6 -59 14 -25 43 -89 65 -141 57 -131 81 -171 119 -196 106 -72
396 -50 488 37 34 32 163 406 149 429 -13 21 -33 8 -43 -27z" id="node14" class="node"></path>
<path d="M1676 882 c-3 -5 -17 -53 -31 -107 -34 -132 -79 -275 -98 -311 -62
-120 -302 -185 -509 -138 -115 26 -126 41 -290 379 -33 69 -48 91 -65 93 -13
2 -23 0 -23 -4 0 -4 44 -92 98 -197 150 -294 188 -322 432 -322 164 0 251 28
338 109 55 50 74 98 152 366 15 52 30 105 34 118 6 18 4 22 -13 22 -11 0 -22
-4 -25 -8z" id="node15" class="node"></path>
</g>
<g transform="translate(0.000000,300.000000) scale(0.100000,-0.100000)" fill="#FFFFFF" stroke="none">

</g>
</svg>